# xmcd
#
# Track frame offsets:
#	150
#	13265
#	27144
#	34417
#	52252
#	62367
#	74510
#	87120
#	100275
#	110932
#	125892
#	137317
#
# Disc length: 2037 seconds
#
# Revision: 0
# Processed by: cddbd v1.4PL0 Copyright (c) Steve Scherf et al.
# Submitted via: EasyCDDAExtractor 5.0.4.1
#
DISCID=af07f30c
DTITLE=Various Artist - The Friendly Voice Of
DYEAR=1900
DGENRE=country
TTITLE0=Greene, Smokey - RV Blues
TTITLE1=Bayou Baby
TTITLE2=Nickaty Nackaty Now Now Now
TTITLE3=Just Plain Folks
TTITLE4=Greene, Smokey - Taxes
TTITLE5=If You Don't Belive It
TTITLE6=Wings In The Morning
TTITLE7=Take Me As I  Am Or Let Me Go
TTITLE8=Give Me A Little Old Fashioned Love
TTITLE9=Greene, Smokey - Old New Hampshire Home
TTITLE10=Greene, Smoke - Far Side Banks Of Jordan
TTITLE11=There's A Goldmine In The Sky
EXTD=
EXTT0=
EXTT1=
EXTT2=
EXTT3=
EXTT4=
EXTT5=
EXTT6=
EXTT7=
EXTT8=
EXTT9=
EXTT10=
EXTT11=
PLAYORDER=
